<svg xmlns="http://www.w3.org/2000/svg" xmlns:svg="http://www.w3.org/2000/svg" viewBox="0 0 666 666" xml:space="preserve" version="1.1">
  <g transform="matrix(1.3333333,0,0,-1.3333333,0,666.66667)" fill="#ffffff">
   <g transform="translate(339.6777,214)">
    <path d="m 0,0 63.161,63.161 c 4.882,4.882 4.882,12.796 0,17.678 l -72,72 c -4.881,4.882 -12.797,4.882 -17.678,0 L -77.678,101.678 V 144 c 0,6.904 -5.596,12.5 -12.5,12.5 -6.904,0 -12.5,-5.596 -12.5,-12.5 v -41.322 l -50.161,50.161 c -4.882,4.882 -12.796,4.882 -17.678,0 l -72,-72 c -4.881,-4.882 -4.881,-12.796 0,-17.678 L -179.355,0 -242.517,-63.161 c -4.881,-4.882 -4.881,-12.796 0,-17.678 4.882,-4.881 12.796,-4.881 17.678,0 l 72,72 c 4.881,4.882 4.881,12.796 0,17.678 L -216,72 l 54.322,54.322 59,-59 V -72 c 0,-6.903 5.596,-12.5 12.5,-12.5 6.904,0 12.5,5.597 12.5,12.5 V 66.322 l 60,60 L 36.645,72 -26.517,8.839 c -4.881,-4.882 -4.881,-12.796 0,-17.678 l 72,-72 c 2.441,-2.44 5.64,-3.661 8.839,-3.661 3.199,0 6.399,1.221 8.839,3.661 4.882,4.882 4.882,12.796 0,17.678 z" />
  </g>
  <path d="M 437,62 H 62 v 375 h 375 z m 12.5,400 H 49.5 C 42.596,462 37,456.404 37,449.5 V 49.5 C 37,42.597 42.596,37 49.5,37 h 400 c 6.903,0 12.5,5.597 12.5,12.5 v 400 c 0,6.904 -5.597,12.5 -12.5,12.5" />
  </g>
</svg>